<?xml version="1.0" encoding="iso-8859-1"?>
<!-- Generator: Adobe Illustrator 16.0.0, SVG Export Plug-In . SVG Version: 6.00 Build 0)  -->
<!DOCTYPE svg PUBLIC "-//W3C//DTD SVG 1.1//EN" "http://www.w3.org/Graphics/SVG/1.1/DTD/svg11.dtd">
<svg version="1.1" id="Capa_1" xmlns="http://www.w3.org/2000/svg" xmlns:xlink="http://www.w3.org/1999/xlink" x="0px" y="0px"
	 width="219.898px" height="219.898px" viewBox="0 0 219.898 219.898" style="enable-background:new 0 0 219.898 219.898;"
	 xml:space="preserve">
<g>
	<g>
		<path d="M33.625,107.097c-1.934,0-3.504,1.567-3.504,3.504v67.811c0,1.933,1.571,3.504,3.504,3.504h16.953
			c1.936,0,3.504-1.571,3.504-3.504v-67.811c0-1.938-1.569-3.504-3.504-3.504H33.625z M47.073,174.907h-9.945v-60.802h9.945V174.907
			z" fill="#fff"/>
		<path d="M101.436,107.097c-1.935,0-3.504,1.567-3.504,3.504v67.811c0,1.933,1.569,3.504,3.504,3.504h16.953
			c1.934,0,3.505-1.571,3.505-3.504v-67.811c0-1.938-1.571-3.504-3.505-3.504H101.436z M114.885,174.907h-9.945v-60.802h9.945
			V174.907z" fill="#fff"/>
		<path d="M169.25,107.097c-1.934,0-3.504,1.567-3.504,3.504v67.811c0,1.933,1.57,3.504,3.504,3.504h16.953
			c1.938,0,3.505-1.571,3.505-3.504v-67.811c0-1.938-1.567-3.504-3.505-3.504H169.25z M182.695,174.907h-9.941v-60.802h9.945v60.802
			H182.695z" fill="#fff"/>
		<path d="M198.173,100.089v-8.477c0-1.937-1.566-3.504-3.504-3.504H25.154c-1.933,0-3.504,1.567-3.504,3.504v8.477
			c0,1.934,1.571,3.504,3.504,3.504h169.519C196.61,103.593,198.173,102.022,198.173,100.089z M191.166,96.584H28.659v-1.468h162.51
			v1.468H191.166z" fill="#fff"/>
		<path d="M202.448,69.118H17.379c-1.936,0-3.504,1.567-3.504,3.504v8.477c0,1.934,1.569,3.504,3.504,3.504h185.068
			c1.934,0,3.505-1.571,3.505-3.504v-8.473C205.953,70.686,204.381,69.118,202.448,69.118z M198.944,77.595H20.884V76.13h178.06
			V77.595z" fill="#fff"/>
		<path d="M210.829,55.33l-99.22-54.892c-1.055-0.585-2.338-0.585-3.392,0L8.622,55.539c-1.398,0.773-2.096,2.396-1.697,3.942
			c0.4,1.543,1.795,2.628,3.393,2.628h199.193c0.024,0,0.045-0.003,0.068,0c1.938,0,3.505-1.571,3.505-3.504
			C213.084,57.106,212.146,55.833,210.829,55.33z M23.89,55.101l86.022-47.592l86.023,47.592H23.89z" fill="#fff"/>
		<path d="M21.647,197.404c0,1.934,1.57,3.505,3.504,3.505h169.515c1.938,0,3.505-1.571,3.505-3.505v-8.477
			c0-1.934-1.567-3.504-3.505-3.504H25.151c-1.934,0-3.504,1.57-3.504,3.504V197.404z M28.655,192.433h162.506v1.468H28.655V192.433
			z" fill="#fff"/>
		<path d="M202.445,204.413H17.379c-1.936,0-3.504,1.571-3.504,3.505v8.477c0,1.934,1.569,3.504,3.504,3.504h185.068
			c1.934,0,3.505-1.57,3.505-3.504v-8.477C205.949,205.984,204.378,204.413,202.445,204.413z M198.94,212.89H20.884v-1.468h178.06
			v1.468H198.94z" fill="#fff"/>
		<path d="M95.896,35.872c0,7.73,6.287,14.017,14.017,14.017s14.018-6.286,14.018-14.017c0-7.731-6.287-14.018-14.018-14.018
			S95.896,28.141,95.896,35.872z M116.921,35.872c0,3.863-3.144,7.008-7.009,7.008s-7.008-3.145-7.008-7.008
			c0-3.867,3.143-7.009,7.008-7.009S116.921,32.005,116.921,35.872z" fill="#fff"/>
	</g>
</g>
<g>
</g>
<g>
</g>
<g>
</g>
<g>
</g>
<g>
</g>
<g>
</g>
<g>
</g>
<g>
</g>
<g>
</g>
<g>
</g>
<g>
</g>
<g>
</g>
<g>
</g>
<g>
</g>
<g>
</g>
</svg>
