<svg aria-hidden="true" style="position:absolute;width:0;height:0" xmlns="http://www.w3.org/2000/svg" overflow="hidden"><defs/><defs><symbol id="icon-arrow" viewBox="0 0 26 32"><path d="M.226 12.703c-.302.312-.302.819 0 1.131s.791.312 1.092 0l10.72-11.103v28.496a.772.772 0 101.544 0V2.754l10.698 11.08c.302.312.791.312 1.092 0s.302-.819 0-1.131L13.477.383a.773.773 0 00-1.284-.075L.225 12.703z"/></symbol><symbol id="icon-arrow-horisontal" viewBox="0 0 38 32"><path d="M22.702.276a.94.94 0 10-1.331 1.331l13.062 13.062H.941a.94.94 0 100 1.882h33.465L21.371 29.586a.94.94 0 101.331 1.331l14.52-14.52a.94.94 0 00.133-1.468l-.012-.012L22.702.276z"/></symbol><symbol id="icon-close" viewBox="0 0 32 32"><path d="M.598 29.923L29.962.001l2.039 2.077L2.637 32 .598 29.923z"/><path d="M2.038 0l29.364 29.922-2.039 2.077L-.001 2.077 2.038 0z"/></symbol><symbol id="icon-facebook" viewBox="0 0 16 32"><path d="M4.655 17.509V32h5.818V17.509h4.364l1.164-6.038h-5.527V7.245c0-.906.873-1.811 1.745-1.811h3.782V0H9.31C7.855 0 4.655 2.113 4.655 5.434v6.038H0v6.038h4.655z"/></symbol><symbol id="icon-instagram" viewBox="0 0 32 32"><path d="M0 24.93C0 29.023 3.349 32 7.442 32h18.605a5.78 5.78 0 005.954-5.581V6.326C32.001 2.977 29.769 0 26.792 0H5.211C2.606 0 .002 2.605.002 4.837V24.93zm16-14.498a5.568 5.568 0 110 11.136 5.568 5.568 0 010-11.136zM8.173 16c0-4.323 3.504-7.827 7.827-7.827s7.827 3.504 7.827 7.827-3.504 7.827-7.827 7.827S8.173 20.323 8.173 16zm16.385-7.442a1.86 1.86 0 110-3.721 1.86 1.86 0 010 3.721z"/></symbol><symbol id="icon-open" viewBox="0 0 40 32"><path d="M0 0h40v3.2H0V0zM0 14.4h40v3.2H0v-3.2zM0 28.8h40V32H0v-3.2z"/></symbol><symbol id="icon-telegram" viewBox="0 0 35 32"><path d="M13.427 29.46l5.806-5.08 9.798 7.621L35.2 1.518 0 14.582l9.798 4.355 3.629 10.524zm.726-2.904V20.75L29.031 7.686 10.887 18.21l3.266 9.072v-.726z"/></symbol><symbol id="icon-twiter" viewBox="0 0 40 32"><path d="M7.579 27.934c-1.684.976-5.754.949-7.579.813C.842 29.56 7.158 32 13.053 32s10.105-.813 17.263-7.318c5.726-5.204 6.316-12.74 5.895-15.857L40 4.759h-3.368L38.737.693c-1.544.949-4.716 2.602-5.053 1.626-.421-1.22-6.316-4.066-11.368-.813-4.042 2.602-3.368 6.099-2.947 8.945C11.79 9.638 2.106 1.506 2.106 1.506c-2.35 4.215.821 9.318 2.093 11.364l.012.02-2.947-.813c0 3.578 3.368 6.099 5.053 7.318H3.791c1.347 3.578 5.614 5.557 7.579 6.099a49.986 49.986 0 01-3.789 2.44z"/></symbol><symbol id="icon-ua" viewBox="0 0 51 32"><path d="M5.1.522a1.781 1.781 0 00-2.518 0l-2.06 2.06a1.781 1.781 0 000 2.518l21.532 21.532c.067.104.146.202.237.292l2.06 2.06a1.781 1.781 0 002.518 0L50.678 5.175a1.781 1.781 0 000-2.518l-2.06-2.06a1.781 1.781 0 00-2.518 0L25.638 21.059 5.1.521z"/></symbol></defs></svg>